<svg width="30" height="30" viewBox="0 0 30 30" fill="none" xmlns="http://www.w3.org/2000/svg">
<path d="M15 11.64V15.5624C15 15.817 15.1011 16.0611 15.2812 16.2412L17.4 18.36M3 8.76V7.8C3 5.14903 5.14903 3 7.8 3H8.76M21.24 3L22.2 3C24.851 3 27 5.14903 27 7.8V8.76M7.32 23.64L3.96 27M26.04 27L22.68 23.64M25.56 15.96C25.56 21.7921 20.8321 26.52 15 26.52C9.16787 26.52 4.44 21.7921 4.44 15.96C4.44 10.1279 9.16787 5.4 15 5.4C20.8321 5.4 25.56 10.1279 25.56 15.96Z" stroke="black" stroke-width="2.5" stroke-linecap="round"/>
</svg>
