<svg width="32" height="32" viewBox="0 0 32 32" fill="none" xmlns="http://www.w3.org/2000/svg">
<path d="M21.3672 27.4277L21.3676 23.1426C21.3678 20.7757 19.4491 18.8568 17.0821 18.8568H7.48584C5.11926 18.8568 3.2007 20.7752 3.20043 23.1418L3.19995 27.4277M28.7996 27.4279L28.7999 23.1429C28.8002 20.7759 26.8815 18.8571 24.5145 18.8571M20.5417 5.41402C21.5941 6.19487 22.2762 7.44668 22.2762 8.85778C22.2762 10.2689 21.5941 11.5207 20.5417 12.3015M16.6583 8.85755C16.6583 11.2243 14.7397 13.143 12.3729 13.143C10.0062 13.143 8.08753 11.2243 8.08753 8.85755C8.08753 6.49079 10.0062 4.57214 12.3729 4.57214C14.7397 4.57214 16.6583 6.49079 16.6583 8.85755Z" stroke="black" stroke-width="2.66667" stroke-linecap="round" stroke-linejoin="round"/>
</svg>
