<svg width="33" height="33" viewBox="0 0 33 33" fill="none" xmlns="http://www.w3.org/2000/svg">
<path fill-rule="evenodd" clip-rule="evenodd" d="M5.22872 0C3.64281 0 2.35718 1.28564 2.35718 2.87154V13.6453C2.35718 15.2312 3.64281 16.5168 5.22872 16.5168H27.7714C29.3573 16.5168 30.6429 15.2312 30.6429 13.6453V2.87154C30.6429 1.28564 29.3573 0 27.7714 0H5.22872ZM11.5993 22.2545C11.5993 24.1308 10.0782 25.6518 8.2019 25.6518C6.32557 25.6518 4.80453 24.1308 4.80453 22.2545C4.80453 20.3782 6.32557 18.8571 8.2019 18.8571C10.0782 18.8571 11.5993 20.3782 11.5993 22.2545ZM24.8099 25.6518C26.6862 25.6518 28.2073 24.1308 28.2073 22.2545C28.2073 20.3782 26.6862 18.8571 24.8099 18.8571C22.9336 18.8571 21.4125 20.3782 21.4125 22.2545C21.4125 24.1308 22.9336 25.6518 24.8099 25.6518ZM8.20169 27.4866C5.47304 27.4866 3.20813 29.4721 2.77298 32.0772C2.68949 32.5769 3.10823 32.9908 3.61488 32.9908H12.7885C13.2952 32.9908 13.7139 32.5769 13.6304 32.0772C13.1953 29.4721 10.9304 27.4866 8.20169 27.4866ZM19.3811 32.0772C19.8163 29.4721 22.0812 27.4866 24.8099 27.4866C27.5385 27.4866 29.8035 29.4721 30.2386 32.0772C30.3221 32.5769 29.9035 32.9908 29.3967 32.9908H20.2231C19.7164 32.9908 19.2977 32.5769 19.3811 32.0772ZM19.1481 5.00063C19.1481 6.46305 17.9626 7.6486 16.5002 7.6486C15.0377 7.6486 13.8522 6.46305 13.8522 5.00063C13.8522 3.53819 15.0377 2.35267 16.5002 2.35267C17.9626 2.35267 19.1481 3.53819 19.1481 5.00063ZM11.8446 13.3344C12.2178 11.1004 14.1601 9.39764 16.5 9.39764C18.84 9.39764 20.7823 11.1004 21.1555 13.3344C21.227 13.7629 20.868 14.1178 20.4335 14.1178H12.5666C12.1321 14.1178 11.773 13.7629 11.8446 13.3344Z" fill="black"/>
</svg>
